<?xml version="1.0" encoding="UTF-8" standalone="no"?>
<svg
   xmlns:dc="http://purl.org/dc/elements/1.1/"
   xmlns:cc="http://creativecommons.org/ns#"
   xmlns:rdf="http://www.w3.org/1999/02/22-rdf-syntax-ns#"
   xmlns:svg="http://www.w3.org/2000/svg"
   xmlns="http://www.w3.org/2000/svg"
   xmlns:xlink="http://www.w3.org/1999/xlink"
   xml:space="preserve"
   enable-background="new 0 0 722.569 346.291"
   viewBox="0 0 520.00002 200.00001"
   height="200"
   width="520"
   y="0px"
   x="0px"
   id="Layer_1"
   version="1.1"><metadata
     id="metadata46"><rdf:RDF><cc:Work
         rdf:about=""><dc:format>image/svg+xml</dc:format><dc:type
           rdf:resource="http://purl.org/dc/dcmitype/StillImage" /><dc:title></dc:title></cc:Work></rdf:RDF></metadata><defs
     id="defs44"><linearGradient
       gradientUnits="userSpaceOnUse"
       y2="9.9025002"
       x2="17.400999"
       y1="9.9025002"
       x1="2.405"
       id="linearGradient4586"
       xlink:href="#SVGID_2_" /><linearGradient
       gradientTransform="translate(0,-0.73390772)"
       y2="-0.091861628"
       x2="9.344739"
       y1="17.883747"
       x1="9.2853842"
       gradientUnits="userSpaceOnUse"
       id="linearGradient4588"
       xlink:href="#SVGID_2_" /><linearGradient
       gradientTransform="translate(-463.97848,-77.992952)"
       y2="98.822403"
       x2="456.98129"
       y1="246.1226"
       x1="459.22171"
       gradientUnits="userSpaceOnUse"
       id="linearGradient4590"
       xlink:href="#SVGID_2_" /></defs><polygon
     transform="translate(-101.1658,-91.282076)"
     style="fill:#ee7913"
     id="polygon3"
     points="216.513,180 198.306,162 176,162 176,183.433 195,202.37 195,180 " /><linearGradient
     gradientTransform="translate(-101.1658,-91.282076)"
     y2="100.4837"
     x2="347.78201"
     y1="247.7832"
     x1="350.02249"
     gradientUnits="userSpaceOnUse"
     id="SVGID_1_"><stop
       id="stop6"
       style="stop-color:#589632"
       offset="0" /><stop
       id="stop8"
       style="stop-color:#93B023"
       offset="1" /></linearGradient><path
     style="fill:url(#SVGID_1_)"
     id="path10"
     d="m 313.08019,79.852924 v 54.350006 c -14.951,10.911 -37.782,18.386 -57.38,18.386 -42.833,0 -75.362,-31.113 -75.362,-72.129006 0,-40.813 33.135,-71.725001 77.182,-71.725001 21.013,0 42.427,8.082001 56.773,20.608001 l -17.982,22.832 c -10.507,-9.698 -25.052,-15.76 -38.791,-15.76 -25.055,0 -44.451,19.194 -44.451,44.045 0,25.053006 19.599,44.249006 44.651,44.249006 8.486,0 18.589,-3.031 27.681,-7.678 V 79.853924 h 27.679 z" /><linearGradient
     y2="98.822403"
     x2="456.98129"
     y1="246.1226"
     x1="459.22171"
     gradientUnits="userSpaceOnUse"
     id="SVGID_2_"><stop
       id="stop13"
       style="stop-color:#589632"
       offset="0" /><stop
       id="stop15"
       style="stop-color:#93B023"
       offset="1" /></linearGradient><linearGradient
     gradientTransform="translate(-101.1658,-90.877076)"
     y2="97.388199"
     x2="551.26642"
     y1="244.6875"
     x1="553.50677"
     gradientUnits="userSpaceOnUse"
     id="SVGID_3_"><stop
       id="stop20"
       style="stop-color:#589632"
       offset="0" /><stop
       id="stop22"
       style="stop-color:#93B023"
       offset="1" /></linearGradient><path
     style="fill:url(#SVGID_3_)"
     id="path24"
     d="m 509.66519,24.089924 -12.324,26.467 c -14.951,-8.89 -32.731,-14.547 -44.045,-14.547 -10.708,0 -17.981,3.839 -17.981,11.517 0,26.064 75.362,11.517 75.16,62.431006 0,27.68 -24.045,42.631 -55.36,42.631 -23.236,0 -46.471,-8.89 -62.431,-22.427 l 12.728,-26.063 c 14.548,12.932 35.155,21.215 50.106,21.215 13.134,0 21.013,-4.849 21.013,-13.537 0,-26.669006 -75.362,-11.112 -75.362,-61.219006 0,-25.659 22.023,-41.823001 54.755,-41.823001 19.8,-10e-4 39.599,6.061001 53.741,15.355001 z" /><linearGradient
     y2="101.4977"
     x2="232.211"
     y1="250.03419"
     x1="234.4702"
     gradientUnits="userSpaceOnUse"
     id="SVGID_4_"><stop
       id="stop27"
       style="stop-color:#589632"
       offset="0" /><stop
       id="stop29"
       style="stop-color:#93B023"
       offset="1" /></linearGradient><polygon
     transform="translate(-101.1658,-91.282076)"
     style="fill:url(#SVGID_4_)"
     id="polygon31"
     points="225.617,189 204,189 204,211.34 240.782,248 264,248 264,226.946 " /><polygon
     transform="translate(-101.1658,-91.282076)"
     style="fill:#f0e64a"
     id="polygon33"
     points="225.617,189 216.513,180 195,180 195,202.37 204,211.34 204,189 " /><linearGradient
     gradientTransform="translate(-101.1658,-91.282076)"
     y2="102.9362"
     x2="186.5125"
     y1="250.2354"
     x1="188.7529"
     gradientUnits="userSpaceOnUse"
     id="SVGID_5_"><stop
       id="stop36"
       style="stop-color:#589632"
       offset="0" /><stop
       id="stop38"
       style="stop-color:#93B023"
       offset="1" /></linearGradient><path
     style="display:inline;fill:url(#SVGID_5_)"
     id="path40"
     d="m 96.886199,125.58192 c -3.258998,0.75 -6.647998,1.157 -10.143998,1.157 -25.005,0 -46.271,-20.562 -46.271,-47.222001 0,-26.66 21.032,-46.769 46.271,-46.769 25.238989,0 45.335989,20.108 45.335989,46.769 0,4.336 -0.54,8.508 -1.539,12.46 l 23.144,23.140001 c 5.967,-10.455 9.305,-22.611001 9.305,-35.778001 0,-41.09 -32.791,-71.855996 -76.713989,-71.855996 -43.722,0 -76.5120002,30.563996 -76.5120002,71.855996 0,41.494001 32.7910002,72.666001 76.5120002,72.666001 11.286998,0 21.834989,-2.076 31.283989,-5.854 z" /><path
     style="fill:#ffffff;fill-opacity:0.17254902"
     id="polygon4174"
     d="m 74.833561,70.717924 87.999989,86.000006 v -21.05469 l -38.38281,-37.945316 -9.10352,-9 -18.207021,-18 z" /><g
     id="flowRoot37"
     style="font-style:normal;font-weight:normal;font-size:40px;line-height:1.25;font-family:sans-serif;letter-spacing:0px;word-spacing:0px;fill:#000000;fill-opacity:1;stroke:none"
     transform="translate(-110.44968,-97.282076)"
     aria-label="A Coruña 2019"><path
       id="path3740"
       style="font-style:normal;font-variant:normal;font-weight:normal;font-stretch:normal;font-family:Trueno;-inkscape-font-specification:Trueno;fill:#589632;fill-opacity:1"
       d="m 133.84375,265.68164 -5.35156,14.51172 h 10.72265 z m -2.22656,-3.88672 h 4.47265 l 11.11328,29.16016 h -4.10156 l -2.65625,-7.48047 h -13.14453 l -2.65625,7.48047 h -4.16015 z" /><path
       id="path3742"
       style="font-style:normal;font-variant:normal;font-weight:normal;font-stretch:normal;font-family:Trueno;-inkscape-font-specification:Trueno;fill:#589632;fill-opacity:1"
       d="m 186.01172,264.04102 v 4.16015 q -1.99219,-1.85547 -4.25781,-2.77344 -2.2461,-0.91796 -4.78516,-0.91796 -5,0 -7.65625,3.0664 -2.65625,3.04688 -2.65625,8.82813 0,5.76172 2.65625,8.82812 2.65625,3.04688 7.65625,3.04688 2.53906,0 4.78516,-0.91797 2.26562,-0.91797 4.25781,-2.77344 v 4.12109 q -2.07031,1.40625 -4.39453,2.10938 -2.30469,0.70312 -4.88282,0.70312 -6.62109,0 -10.42968,-4.04296 -3.8086,-4.0625 -3.8086,-11.07422 0,-7.03125 3.8086,-11.07422 3.80859,-4.0625 10.42968,-4.0625 2.61719,0 4.92188,0.70312 2.32422,0.6836 4.35547,2.07032 z" /><path
       id="path3744"
       style="font-style:normal;font-variant:normal;font-weight:normal;font-stretch:normal;font-family:Trueno;-inkscape-font-specification:Trueno;fill:#589632;fill-opacity:1"
       d="m 200.46484,271.59961 q -2.89062,0 -4.57031,2.26562 -1.67969,2.2461 -1.67969,6.17188 0,3.92578 1.66016,6.19141 1.67969,2.24609 4.58984,2.24609 2.8711,0 4.55078,-2.26563 1.67969,-2.26562 1.67969,-6.17187 0,-3.88672 -1.67969,-6.15234 -1.67968,-2.28516 -4.55078,-2.28516 z m 0,-3.04688 q 4.6875,0 7.36328,3.04688 2.67579,3.04687 2.67579,8.4375 0,5.37109 -2.67579,8.4375 -2.67578,3.04687 -7.36328,3.04687 -4.70703,0 -7.38281,-3.04687 -2.65625,-3.06641 -2.65625,-8.4375 0,-5.39063 2.65625,-8.4375 2.67578,-3.04688 7.38281,-3.04688 z" /><path
       id="path3746"
       style="font-style:normal;font-variant:normal;font-weight:normal;font-stretch:normal;font-family:Trueno;-inkscape-font-specification:Trueno;fill:#589632;fill-opacity:1"
       d="m 229.11719,272.43945 q -0.60547,-0.35156 -1.32813,-0.50781 -0.70312,-0.17578 -1.5625,-0.17578 -3.04687,0 -4.6875,1.99219 -1.62109,1.97265 -1.62109,5.68359 v 11.52344 h -3.61328 v -21.875 h 3.61328 v 3.39844 q 1.13281,-1.99219 2.94922,-2.94922 1.8164,-0.97657 4.41406,-0.97657 0.37109,0 0.82031,0.0586 0.44922,0.0391 0.9961,0.13672 z" /><path
       id="path3748"
       style="font-style:normal;font-variant:normal;font-weight:normal;font-stretch:normal;font-family:Trueno;-inkscape-font-specification:Trueno;fill:#589632;fill-opacity:1"
       d="m 232.55469,282.32227 v -13.24219 h 3.59375 v 13.10547 q 0,3.10547 1.21093,4.66797 1.21094,1.54296 3.63282,1.54296 2.91015,0 4.58984,-1.85546 1.69922,-1.85547 1.69922,-5.0586 v -12.40234 h 3.59375 v 21.875 h -3.59375 v -3.35938 q -1.30859,1.99219 -3.04688,2.96875 -1.71875,0.95703 -4.0039,0.95703 -3.76953,0 -5.72266,-2.34375 -1.95312,-2.34375 -1.95312,-6.85546 z m 9.04297,-13.76954 z" /><path
       id="path3750"
       style="font-style:normal;font-variant:normal;font-weight:normal;font-stretch:normal;font-family:Trueno;-inkscape-font-specification:Trueno;fill:#589632;fill-opacity:1"
       d="m 276.5,277.75195 v 13.20313 h -3.59375 v -13.08594 q 0,-3.10547 -1.21094,-4.64844 -1.21094,-1.54297 -3.63281,-1.54297 -2.91016,0 -4.58984,1.85547 -1.67969,1.85547 -1.67969,5.0586 v 12.36328 h -3.61328 v -21.875 h 3.61328 v 3.39844 q 1.28906,-1.97266 3.02734,-2.94922 1.75781,-0.97657 4.04297,-0.97657 3.76953,0 5.70313,2.34375 1.93359,2.32422 1.93359,6.85547 z m -9.0625,-13.55468 -1.11328,-1.07422 q -0.42969,-0.39063 -0.76172,-0.56641 -0.3125,-0.19531 -0.56641,-0.19531 -0.74218,0 -1.09375,0.72265 -0.35156,0.70313 -0.39062,2.30469 h -2.44141 q 0.0391,-2.63672 1.03516,-4.0625 0.99609,-1.44531 2.77344,-1.44531 0.74218,0 1.36718,0.27344 0.625,0.27343 1.34766,0.91797 l 1.11328,1.07421 q 0.42969,0.39063 0.74219,0.58594 0.33203,0.17578 0.58594,0.17578 0.74218,0 1.09375,-0.70312 0.35156,-0.72266 0.39062,-2.32422 h 2.44141 q -0.0391,2.63672 -1.03516,4.08203 -0.99609,1.42578 -2.77344,1.42578 -0.74218,0 -1.36718,-0.27344 -0.625,-0.27343 -1.34766,-0.91796 z" /><path
       id="path3752"
       style="font-style:normal;font-variant:normal;font-weight:normal;font-stretch:normal;font-family:Trueno;-inkscape-font-specification:Trueno;fill:#589632;fill-opacity:1"
       d="m 293.64844,279.95898 q -4.35547,0 -6.03516,0.9961 -1.67969,0.99609 -1.67969,3.39844 0,1.91406 1.25,3.04687 1.26953,1.11328 3.4375,1.11328 2.98828,0 4.78516,-2.10937 1.81641,-2.12891 1.81641,-5.64453 v -0.80079 z m 7.16797,-1.48437 v 12.48047 h -3.59375 v -3.32031 q -1.23047,1.99218 -3.06641,2.94921 -1.83594,0.9375 -4.49219,0.9375 -3.35937,0 -5.35156,-1.875 -1.97266,-1.89453 -1.97266,-5.05859 0,-3.69141 2.46094,-5.56641 2.48047,-1.875 7.38281,-1.875 h 5.03907 v -0.35156 q 0,-2.48047 -1.64063,-3.82812 -1.62109,-1.36719 -4.57031,-1.36719 -1.875,0 -3.65235,0.44922 -1.77734,0.44922 -3.41796,1.34765 v -3.32031 q 1.97265,-0.76172 3.82812,-1.13281 1.85547,-0.39063 3.61328,-0.39063 4.7461,0 7.08985,2.46094 2.34375,2.46094 2.34375,7.46094 z" /><path
       id="path3754"
       style="font-style:normal;font-variant:normal;font-weight:normal;font-stretch:normal;font-family:Trueno;-inkscape-font-specification:Trueno;fill:#589632;fill-opacity:1"
       d="m 324.87891,287.63477 h 13.76953 v 3.32031 h -18.51563 v -3.32031 q 2.2461,-2.32422 6.11328,-6.23047 3.88672,-3.92578 4.88282,-5.0586 1.89453,-2.1289 2.63671,-3.59375 0.76172,-1.48437 0.76172,-2.91015 0,-2.32422 -1.64062,-3.78907 -1.6211,-1.46484 -4.23828,-1.46484 -1.85547,0 -3.92578,0.64453 -2.05079,0.64453 -4.39454,1.95313 v -3.98438 q 2.38282,-0.95703 4.45313,-1.44531 2.07031,-0.48828 3.78906,-0.48828 4.53125,0 7.22656,2.26562 2.69532,2.26563 2.69532,6.05469 0,1.79688 -0.6836,3.41797 -0.66406,1.60156 -2.4414,3.78906 -0.48828,0.56641 -3.10547,3.28125 -2.61719,2.69531 -7.38281,7.5586 z" /><path
       id="path3756"
       style="font-style:normal;font-variant:normal;font-weight:normal;font-stretch:normal;font-family:Trueno;-inkscape-font-specification:Trueno;fill:#589632;fill-opacity:1"
       d="m 355.38672,264.39258 q -3.04688,0 -4.58985,3.00781 -1.52343,2.98828 -1.52343,9.00391 0,5.99609 1.52343,9.0039 1.54297,2.98828 4.58985,2.98828 3.0664,0 4.58984,-2.98828 1.54297,-3.00781 1.54297,-9.0039 0,-6.01563 -1.54297,-9.00391 -1.52344,-3.00781 -4.58984,-3.00781 z m 0,-3.125 q 4.90234,0 7.48047,3.88672 2.59765,3.86718 2.59765,11.25 0,7.36328 -2.59765,11.25 -2.57813,3.86718 -7.48047,3.86718 -4.90235,0 -7.5,-3.86718 -2.57813,-3.88672 -2.57813,-11.25 0,-7.38282 2.57813,-11.25 2.59765,-3.88672 7.5,-3.88672 z" /><path
       id="path3758"
       style="font-style:normal;font-variant:normal;font-weight:normal;font-stretch:normal;font-family:Trueno;-inkscape-font-specification:Trueno;fill:#589632;fill-opacity:1"
       d="m 373.10156,287.63477 h 6.44531 v -22.2461 l -7.01171,1.40625 v -3.59375 l 6.97265,-1.40625 h 3.94531 v 25.83985 h 6.44532 v 3.32031 h -16.79688 z" /><path
       id="path3760"
       style="font-style:normal;font-variant:normal;font-weight:normal;font-stretch:normal;font-family:Trueno;-inkscape-font-specification:Trueno;fill:#589632;fill-opacity:1"
       d="m 398.00391,290.34961 v -3.59375 q 1.48437,0.70312 3.00781,1.07422 1.52344,0.37109 2.98828,0.37109 3.90625,0 5.95703,-2.61719 2.07031,-2.63671 2.36328,-7.98828 -1.13281,1.67969 -2.87109,2.57813 -1.73828,0.89844 -3.84766,0.89844 -4.375,0 -6.93359,-2.63672 -2.53906,-2.65625 -2.53906,-7.2461 0,-4.49218 2.65625,-7.20703 2.65625,-2.71484 7.07031,-2.71484 5.05859,0 7.71484,3.88672 2.67578,3.86718 2.67578,11.25 0,6.89453 -3.28125,11.01562 -3.26172,4.10156 -8.78906,4.10156 -1.48437,0 -3.00781,-0.29296 -1.52344,-0.29297 -3.16406,-0.87891 z m 7.85156,-12.36328 q 2.65625,0 4.19922,-1.81641 1.5625,-1.8164 1.5625,-4.98047 0,-3.14453 -1.5625,-4.96093 -1.54297,-1.83594 -4.19922,-1.83594 -2.65625,0 -4.21875,1.83594 -1.54297,1.8164 -1.54297,4.96093 0,3.16407 1.54297,4.98047 1.5625,1.81641 4.21875,1.81641 z" /></g><g
     style="fill:url(#linearGradient4586);fill-opacity:1"
     id="g4"
     transform="matrix(8.6751664,0,0,7.9116682,276.23997,14.541354)"><path
       style="fill:url(#linearGradient4588);fill-opacity:1"
       id="path2"
       d="M 11.713,16.952092 V 6.9550923 l 0.506,-0.443 v -0.19 l -1.328,-0.225 v -2.05 l 0.211,-0.248 -0.211,-0.127 v -0.296 l -0.649,-0.271 h -0.018 l -0.04,-0.938 c 0,0 0.111,-0.127 0.095,-0.204 -0.017,-0.079 -0.379,-0.174 -0.379,-0.174 V 0.93609228 l -0.647,-0.661 -0.639,0.639 V 1.6620923 H 8.465 l -0.017,-2.03000002 -0.236,-0.366 -0.222,0.396 L 7.903,3.1050923 H 7.885 l -0.588,0.61 0.187,0.152 v 2.348 l -0.6,0.369 H 6.57 v 0.194 l -0.283,0.176 0.283,0.06 v 9.9409997 c 1.7713194,1.425393 3.542296,1.207058 5.143,-0.003 z M 10.545,7.8920923 h 0.475 v 1.072 h -0.475 z m 0,2.3739997 h 0.475 v 1.069 h -0.475 z m 0,2.37 h 0.475 v 1.074 h -0.475 z m 0,2.37 h 0.475 v 1.073 H 10.545 Z M 9.111,7.8920923 h 0.473 v 1.072 H 9.111 Z m 0,2.3739997 h 0.473 v 1.069 H 9.111 Z m 0,2.37 h 0.473 v 1.074 H 9.111 Z m 0,2.37 h 0.473 v 1.073 H 9.111 Z" /></g></svg>