<?xml version="1.0" encoding="UTF-8" standalone="no"?>
<!-- Created with Inkscape (http://www.inkscape.org/) -->

<svg
   width="2022.047"
   height="805.03937"
   viewBox="0 0 534.99993 213"
   version="1.1"
   id="svg1"
   xml:space="preserve"
   inkscape:version="1.3.1 (9b9bdc1480, 2023-11-25, custom)"
   sodipodi:docname="logotype_qgis_uc_2024_inkscape.svg"
   xmlns:inkscape="http://www.inkscape.org/namespaces/inkscape"
   xmlns:sodipodi="http://sodipodi.sourceforge.net/DTD/sodipodi-0.dtd"
   xmlns:xlink="http://www.w3.org/1999/xlink"
   xmlns="http://www.w3.org/2000/svg"
   xmlns:svg="http://www.w3.org/2000/svg"><sodipodi:namedview
     id="namedview1"
     pagecolor="#ffffff"
     bordercolor="#000000"
     borderopacity="0.25"
     inkscape:showpageshadow="2"
     inkscape:pageopacity="0.0"
     inkscape:pagecheckerboard="0"
     inkscape:deskcolor="#d1d1d1"
     inkscape:document-units="px"
     inkscape:zoom="0.39910213"
     inkscape:cx="1014.7778"
     inkscape:cy="405.91114"
     inkscape:window-width="1504"
     inkscape:window-height="868"
     inkscape:window-x="26"
     inkscape:window-y="23"
     inkscape:window-maximized="0"
     inkscape:current-layer="layer1"
     inkscape:export-bgcolor="#ffffff00" /><defs
     id="defs1"><linearGradient
       id="paint0_linear_2_6"
       x1="382.56601"
       y1="237.03999"
       x2="382.30301"
       y2="160.226"
       gradientUnits="userSpaceOnUse"><stop
         stop-color="#589632"
         id="stop21" /><stop
         offset="1"
         stop-color="#93B023"
         id="stop22" /></linearGradient><linearGradient
       id="paint1_linear_2_6"
       x1="255.034"
       y1="158.953"
       x2="252.644"
       y2="1.83327"
       gradientUnits="userSpaceOnUse"><stop
         stop-color="#589632"
         id="stop23" /><stop
         offset="1"
         stop-color="#93B023"
         id="stop24" /></linearGradient><linearGradient
       id="paint2_linear_2_6"
       x1="472.08401"
       y1="155.651"
       x2="469.694"
       y2="-1.46859"
       gradientUnits="userSpaceOnUse"><stop
         stop-color="#589632"
         id="stop25" /><stop
         offset="1"
         stop-color="#93B023"
         id="stop26" /></linearGradient><linearGradient
       id="paint3_linear_2_6"
       x1="131.778"
       y1="161.354"
       x2="129.369"
       y2="2.9148901"
       gradientUnits="userSpaceOnUse"><stop
         stop-color="#589632"
         id="stop27" /><stop
         offset="1"
         stop-color="#93B023"
         id="stop28" /></linearGradient><linearGradient
       id="paint4_linear_2_6"
       x1="83.013199"
       y1="161.56799"
       x2="80.623497"
       y2="4.4492798"
       gradientUnits="userSpaceOnUse"><stop
         stop-color="#589632"
         id="stop29" /><stop
         offset="1"
         stop-color="#93B023"
         id="stop30" /></linearGradient><linearGradient
       id="paint5_linear_2_6"
       x1="381.5"
       y1="47"
       x2="340"
       y2="159"
       gradientUnits="userSpaceOnUse"><stop
         stop-color="#FF9B44"
         id="stop31" /><stop
         offset="1"
         stop-color="#EE7913"
         id="stop32" /></linearGradient><linearGradient
       id="paint7_linear_2_6"
       x1="399.125"
       y1="11.9861"
       x2="364.569"
       y2="71.120201"
       gradientUnits="userSpaceOnUse"><stop
         stop-color="#FFEFE1"
         id="stop35" /><stop
         offset="1"
         stop-color="#EE7913"
         id="stop36" /></linearGradient><linearGradient
       id="paint8_linear_2_6"
       x1="382"
       y1="-8.5935699e-07"
       x2="351"
       y2="11"
       gradientUnits="userSpaceOnUse"><stop
         stop-color="#F1903C"
         id="stop37" /><stop
         offset="1"
         stop-color="#EE7913"
         id="stop38" /></linearGradient><linearGradient
       id="paint9_linear_2_6"
       x1="342"
       y1="21"
       x2="332"
       y2="30"
       gradientUnits="userSpaceOnUse"><stop
         stop-color="white"
         stop-opacity="0"
         id="stop39" /><stop
         offset="1"
         stop-color="white"
         id="stop40" /></linearGradient><linearGradient
       id="paint10_linear_2_6"
       x1="354"
       y1="21"
       x2="344"
       y2="30"
       gradientUnits="userSpaceOnUse"><stop
         stop-color="white"
         stop-opacity="0"
         id="stop41" /><stop
         offset="1"
         stop-color="white"
         id="stop42" /></linearGradient><linearGradient
       id="paint11_linear_2_6"
       x1="366"
       y1="21"
       x2="356"
       y2="30"
       gradientUnits="userSpaceOnUse"><stop
         stop-color="white"
         stop-opacity="0"
         id="stop43" /><stop
         offset="1"
         stop-color="white"
         id="stop44" /></linearGradient><linearGradient
       id="paint12_linear_2_6"
       x1="378"
       y1="21"
       x2="368"
       y2="30"
       gradientUnits="userSpaceOnUse"><stop
         stop-color="white"
         stop-opacity="0"
         id="stop45" /><stop
         offset="1"
         stop-color="white"
         id="stop46" /></linearGradient><linearGradient
       id="paint13_linear_2_6"
       x1="390"
       y1="21"
       x2="380"
       y2="30"
       gradientUnits="userSpaceOnUse"><stop
         stop-color="white"
         stop-opacity="0"
         id="stop47" /><stop
         offset="1"
         stop-color="white"
         id="stop48" /></linearGradient><linearGradient
       id="paint14_linear_2_6"
       x1="402"
       y1="21"
       x2="392"
       y2="30"
       gradientUnits="userSpaceOnUse"><stop
         stop-color="white"
         stop-opacity="0"
         id="stop49" /><stop
         offset="1"
         stop-color="white"
         id="stop50" /></linearGradient><linearGradient
       inkscape:collect="always"
       xlink:href="#paint5_linear_2_6"
       id="linearGradient1"
       gradientUnits="userSpaceOnUse"
       x1="381.5"
       y1="47"
       x2="340"
       y2="159" /><linearGradient
       inkscape:collect="always"
       xlink:href="#paint5_linear_2_6"
       id="linearGradient2"
       gradientUnits="userSpaceOnUse"
       x1="381.5"
       y1="47"
       x2="340"
       y2="159" /></defs><g
     inkscape:label="Layer 1"
     inkscape:groupmode="layer"
     id="layer1"><g
       style="fill:none"
       id="g1"
       transform="matrix(0.99253798,0,0,0.99307057,2.445463,0.97632061)"><path
         fill-rule="evenodd"
         clip-rule="evenodd"
         d="m 370.76,202.38 7.54,-1.508 c 0.277,1.664 1.005,2.964 2.184,3.9 1.213,0.901 2.808,1.352 4.784,1.352 1.768,0 3.206,-0.399 4.316,-1.196 1.144,-0.832 1.716,-1.855 1.716,-3.068 0,-0.936 -0.364,-1.716 -1.092,-2.34 -0.728,-0.659 -1.682,-1.179 -2.86,-1.56 -1.144,-0.381 -2.41,-0.745 -3.796,-1.092 -1.387,-0.347 -2.791,-0.78 -4.212,-1.3 -1.387,-0.52 -2.67,-1.144 -3.848,-1.872 -1.144,-0.728 -2.08,-1.751 -2.808,-3.068 -0.728,-1.352 -1.092,-2.947 -1.092,-4.784 0,-3.051 1.282,-5.599 3.848,-7.644 2.6,-2.08 5.772,-3.12 9.516,-3.12 3.778,0 6.898,0.936 9.36,2.808 2.461,1.872 3.917,4.316 4.368,7.332 l -7.54,1.508 c -0.278,-1.595 -0.988,-2.86 -2.132,-3.796 -1.11,-0.971 -2.548,-1.456 -4.316,-1.456 -1.595,0 -2.895,0.381 -3.9,1.144 -1.006,0.728 -1.508,1.664 -1.508,2.808 0,0.901 0.364,1.664 1.092,2.288 0.728,0.589 1.664,1.075 2.808,1.456 1.178,0.347 2.461,0.693 3.848,1.04 1.386,0.347 2.773,0.797 4.16,1.352 1.421,0.52 2.704,1.161 3.848,1.924 1.178,0.763 2.132,1.837 2.86,3.224 0.728,1.387 1.092,3.033 1.092,4.94 0,3.085 -1.352,5.668 -4.056,7.748 -2.67,2.08 -5.963,3.12 -9.88,3.12 -3.918,0 -7.159,-0.919 -9.724,-2.756 -2.566,-1.837 -4.091,-4.299 -4.576,-7.384 z m 33.275,9.62 h 24.232 v -6.604 H 411.471 V 175.6 h -7.436 z m 63.234,0 h -7.956 l -3.12,-7.904 h -16.016 l -3.12,7.904 h -7.54 l 14.768,-36.4 h 8.216 z m -19.084,-28.132 -5.408,13.624 h 10.816 z m 43.804,-8.268 -10.348,28.236 -10.4,-28.236 h -7.904 l 13.988,36.4 h 8.216 l 13.988,-36.4 z m 33.39,36.4 h 7.956 l -14.768,-36.4 h -8.216 L 495.583,212 h 7.54 l 3.12,-7.904 h 16.016 z m -16.536,-14.508 5.408,-13.624 5.408,13.624 z M 358.281,212 h 7.436 v -36.4 h -7.436 z m -14.498,0 h -7.436 V 182.204 H 325.219 V 175.6 h 29.744 v 6.604 h -11.18 z m -22.9,0 h 7.956 l -14.768,-36.4 h -8.216 L 291.087,212 h 7.54 l 3.12,-7.904 h 16.016 z m -16.536,-14.508 5.408,-13.624 5.408,13.624 z m -23.74,0.832 9.048,13.676 h -8.84 l -8.528,-12.948 h -4.68 V 212 h -7.436 v -36.4 h 15.652 c 3.848,0 6.951,1.109 9.308,3.328 2.358,2.184 3.536,4.975 3.536,8.372 0,2.6 -0.728,4.888 -2.184,6.864 -1.421,1.976 -3.38,3.363 -5.876,4.16 z m -4.784,-16.12 h -8.216 v 10.036 h 8.216 c 1.56,0 2.808,-0.468 3.744,-1.404 0.971,-0.936 1.456,-2.132 1.456,-3.588 0,-1.456 -0.485,-2.652 -1.456,-3.588 -0.936,-0.971 -2.184,-1.456 -3.744,-1.456 z m -22.079,14.716 c -0.936,-1.56 -2.271,-2.739 -4.004,-3.536 2.6,-1.837 3.9,-4.437 3.9,-7.8 0,-2.912 -1.005,-5.304 -3.016,-7.176 -2.011,-1.872 -4.663,-2.808 -7.956,-2.808 h -15.86 V 212 h 17.42 c 3.293,0 5.945,-0.919 7.956,-2.756 2.011,-1.872 3.016,-4.247 3.016,-7.124 0,-1.941 -0.485,-3.675 -1.456,-5.2 z m -19.708,-14.924 h 7.904 c 1.456,0 2.617,0.399 3.484,1.196 0.901,0.797 1.352,1.837 1.352,3.12 0,1.283 -0.451,2.34 -1.352,3.172 -0.867,0.832 -2.028,1.248 -3.484,1.248 h -7.904 z m 8.892,23.608 h -8.892 v -8.736 h 8.892 c 1.456,0 2.617,0.416 3.484,1.248 0.867,0.797 1.3,1.837 1.3,3.12 0,1.283 -0.433,2.34 -1.3,3.172 -0.867,0.797 -2.028,1.196 -3.484,1.196 z"
         fill="url(#paint0_linear_2_6)"
         id="path1"
         style="fill:url(#paint0_linear_2_6)" /><path
         fill-rule="evenodd"
         clip-rule="evenodd"
         d="m 37.8735,193.8 c 0,5.269 1.8374,9.707 5.512,13.312 3.6747,3.605 8.216,5.408 13.624,5.408 3.9867,0 7.488,-1.023 10.504,-3.068 3.016,-2.045 5.1827,-4.541 6.5,-7.488 l -6.864,-2.652 c -0.9013,1.872 -2.2533,3.415 -4.056,4.628 -1.768,1.179 -3.796,1.768 -6.084,1.768 -3.224,0 -5.9453,-1.144 -8.164,-3.432 -2.184,-2.288 -3.276,-5.113 -3.276,-8.476 0,-3.363 1.092,-6.188 3.276,-8.476 2.2187,-2.288 4.94,-3.432 8.164,-3.432 2.288,0 4.316,0.607 6.084,1.82 1.8027,1.179 3.1547,2.704 4.056,4.576 l 6.864,-2.652 c -1.3173,-2.947 -3.484,-5.443 -6.5,-7.488 -3.016,-2.045 -6.5173,-3.068 -10.504,-3.068 -5.408,0 -9.9493,1.803 -13.624,5.408 -3.6746,3.605 -5.512,8.043 -5.512,13.312 z M 2.28809,175.6 v 22.1 c 0,4.333 1.47333,7.887 4.42,10.66 2.94666,2.773 6.72531,4.16 11.33601,4.16 4.6107,0 8.3893,-1.387 11.336,-4.16 2.9467,-2.773 4.42,-6.327 4.42,-10.66 v -22.1 h -7.436 v 22.1 c 0,2.357 -0.7627,4.281 -2.288,5.772 -1.4907,1.491 -3.5013,2.236 -6.032,2.236 -2.496,0 -4.5067,-0.745 -6.032,-2.236 -1.5253,-1.491 -2.28801,-3.415 -2.28801,-5.772 v -22.1 z"
         fill="#ee7913"
         id="path2" /><path
         fill-rule="evenodd"
         clip-rule="evenodd"
         d="m 100.988,205.396 8.996,-7.956 c 3.952,-3.501 5.928,-7.211 5.928,-11.128 0,-3.467 -1.161,-6.205 -3.484,-8.216 -2.288,-2.011 -5.356,-3.016 -9.204,-3.016 -3.9868,0 -7.2108,1.144 -9.6721,3.432 -2.4614,2.253 -3.692,5.339 -3.692,9.256 h 7.696 c 0,-1.872 0.4853,-3.311 1.456,-4.316 0.9706,-1.04 2.3051,-1.56 4.0041,-1.56 1.56,0 2.825,0.416 3.796,1.248 0.971,0.797 1.456,1.907 1.456,3.328 0,1.941 -1.005,3.848 -3.016,5.72 L 90.0159,206.28 V 212 h 26.4161 v -6.604 z m 23.438,1.768 c -2.808,-3.571 -4.212,-8.025 -4.212,-13.364 0,-5.339 1.404,-9.793 4.212,-13.364 2.843,-3.571 6.413,-5.356 10.712,-5.356 4.299,0 7.852,1.785 10.66,5.356 2.808,3.571 4.212,8.025 4.212,13.364 0,5.339 -1.404,9.793 -4.212,13.364 -2.808,3.571 -6.361,5.356 -10.66,5.356 -4.299,0 -7.869,-1.785 -10.712,-5.356 z m 5.512,-21.892 c -1.352,2.253 -2.028,5.096 -2.028,8.528 0,3.432 0.676,6.275 2.028,8.528 1.387,2.253 3.12,3.38 5.2,3.38 2.08,0 3.796,-1.127 5.148,-3.38 1.352,-2.253 2.028,-5.096 2.028,-8.528 0,-3.432 -0.676,-6.275 -2.028,-8.528 -1.352,-2.253 -3.068,-3.38 -5.148,-3.38 -2.08,0 -3.813,1.127 -5.2,3.38 z m 35.034,20.124 8.996,-7.956 c 3.952,-3.501 5.928,-7.211 5.928,-11.128 0,-3.467 -1.161,-6.205 -3.484,-8.216 -2.288,-2.011 -5.356,-3.016 -9.204,-3.016 -3.986,0 -7.21,1.144 -9.672,3.432 -2.461,2.253 -3.692,5.339 -3.692,9.256 h 7.696 c 0,-1.872 0.486,-3.311 1.456,-4.316 0.971,-1.04 2.306,-1.56 4.004,-1.56 1.56,0 2.826,0.416 3.796,1.248 0.971,0.797 1.456,1.907 1.456,3.328 0,1.941 -1.005,3.848 -3.016,5.72 L 154,206.28 V 212 h 26.416 v -6.604 z m 42.272,-6.864 V 175.6 h -7.592 l -17.94,22.932 v 6.552 h 18.096 V 212 h 7.436 v -6.916 h 4.472 v -6.552 z m -17.472,0 10.036,-12.948 v 12.948 z"
         fill="#ee7913"
         id="path3" /><path
         fill-rule="evenodd"
         clip-rule="evenodd"
         d="m 443.635,142.002 -0.25,-0.432 -61.19,-82.9765 1.61,-1.187 50.401,68.3465 -46.571,-80.2511 1.73,-1.0038 55.694,95.9729 4.746,6.435 -1.61,1.188 -4.512,-6.12 z m -88.815,-83.9295 -59,84.4995 -1.64,-1.144 2.123,-3.04 -0.673,-0.381 53,-93.5001 1.74,0.9862 -46.569,82.1559 49.379,-70.7215 z M 323,148 h 92 v -2 h -92 z m 92.5,11.5 H 323 v -2 h 92.5 z"
         fill="#639b30"
         id="path4" /><path
         d="m 112.624,86.6507 -19.4208,-19.2 H 69.4102 V 90.3125 L 89.6768,110.512 V 86.6507 Z"
         fill="#ee7913"
         id="path5" /><path
         d="m 323.539,77.1947 v 57.9733 c -15.948,11.638 -40.301,19.612 -61.205,19.612 -45.689,0 -80.386,-33.187 -80.386,-76.9379 0,-43.5338 35.344,-76.50664 82.327,-76.50664 22.414,0 45.256,8.6208 60.558,21.98184 L 305.652,47.6715 C 294.445,37.3269 278.93,30.8608 264.275,30.8608 c -26.725,0 -47.414,20.4736 -47.414,46.9813 0,26.7229 20.905,47.1989 47.628,47.1989 9.051,0 19.828,-3.233 29.526,-8.19 V 77.1957 Z"
         fill="url(#paint1_linear_2_6)"
         id="path6"
         style="fill:url(#paint1_linear_2_6)" /><path
         d="m 533.23,17.2821 -13.146,28.2315 c -15.947,-9.4827 -34.913,-15.5168 -46.981,-15.5168 -11.422,0 -19.18,4.0949 -19.18,12.2848 0,27.8016 80.386,12.2848 80.171,66.5934 0,29.525 -25.648,45.473 -59.051,45.473 -24.785,0 -49.569,-9.483 -66.593,-23.922 l 13.577,-27.801 c 15.518,13.794 37.498,22.629 53.446,22.629 14.01,0 22.414,-5.172 22.414,-14.439 0,-28.447 -80.386,-11.8529 -80.386,-65.3003 0,-27.3696 23.491,-44.611235 58.405,-44.611235 21.12,-0.001066 42.239,6.465065 57.324,16.378635 z"
         fill="url(#paint2_linear_2_6)"
         id="path7"
         style="fill:url(#paint2_linear_2_6)" /><path
         d="M 122.335,96.2507 H 99.2769 V 120.08 l 39.2341,39.104 h 24.766 v -22.458 z"
         fill="url(#paint3_linear_2_6)"
         id="path8"
         style="fill:url(#paint3_linear_2_6)" /><path
         d="m 122.335,96.2507 -9.711,-9.6 H 89.6768 v 23.8613 l 9.6,9.568 V 96.2507 Z"
         fill="#f0e64a"
         id="path9" /><path
         d="m 92.9323,125.972 c -3.4763,0.8 -7.0912,1.234 -10.8203,1.234 -26.672,0 -49.3557,-21.932 -49.3557,-50.3697 0,-28.4374 22.4341,-49.887 49.3557,-49.887 26.922,0 48.358,21.4486 48.358,49.887 0,4.625 -0.576,9.0752 -1.641,13.2906 l 24.687,24.6831 c 6.365,-11.152 9.925,-24.1188 9.925,-38.1636 C 163.441,32.8171 128.464,0 81.6128,0 34.976,0 0,32.6016 0,76.6464 c 0,44.2606 34.9771,77.5106 81.6128,77.5106 12.0395,0 23.2902,-2.215 33.3692,-6.244 z"
         fill="url(#paint4_linear_2_6)"
         id="path10"
         style="fill:url(#paint4_linear_2_6)" /><path
         d="m 69.4102,67.4507 93.8668,91.7333 v -22.458 l -40.942,-40.4753 -9.71,-9.6 -19.4211,-19.2 z"
         fill="#ffffff"
         fill-opacity="0.172549"
         id="path11" /><path
         d="M 335,158 352.5,46.5 h 11 l -18,111.5 z"
         fill="url(#paint5_linear_2_6)"
         id="path12"
         style="fill:url(#linearGradient1)" /><path
         d="M 396,158 374.5,46.5 h 11 L 407,158 Z"
         fill="url(#paint6_linear_2_6)"
         id="path13"
         style="fill:url(#linearGradient2)" /><path
         fill-rule="evenodd"
         clip-rule="evenodd"
         d="m 335,19 16.144,-8 h 31.813 L 401,19 Z m -1.5,15 H 401 l -15,12.5 h -34 z"
         fill="url(#paint7_linear_2_6)"
         id="path14"
         style="fill:url(#paint7_linear_2_6)" /><path
         d="M 330,16.5 V 34 h 75.5 V 16.5 Z"
         fill="#ee7913"
         id="path15" /><rect
         x="351"
         width="32"
         height="11"
         fill="url(#paint8_linear_2_6)"
         id="rect15"
         y="0"
         style="fill:url(#paint8_linear_2_6)" /><rect
         x="333.25"
         y="20.75"
         width="9"
         height="9"
         fill="url(#paint9_linear_2_6)"
         id="rect16"
         style="fill:url(#paint9_linear_2_6)" /><rect
         x="345.25"
         y="20.75"
         width="9"
         height="9"
         fill="url(#paint10_linear_2_6)"
         id="rect17"
         style="fill:url(#paint10_linear_2_6)" /><rect
         x="357.25"
         y="20.75"
         width="9"
         height="9"
         fill="url(#paint11_linear_2_6)"
         id="rect18"
         style="fill:url(#paint11_linear_2_6)" /><rect
         x="369.25"
         y="20.75"
         width="9"
         height="9"
         fill="url(#paint12_linear_2_6)"
         id="rect19"
         style="fill:url(#paint12_linear_2_6)" /><rect
         x="381.25"
         y="20.75"
         width="9"
         height="9"
         fill="url(#paint13_linear_2_6)"
         id="rect20"
         style="fill:url(#paint13_linear_2_6)" /><rect
         x="393.25"
         y="20.75"
         width="9"
         height="9"
         fill="url(#paint14_linear_2_6)"
         id="rect21"
         style="fill:url(#paint14_linear_2_6)" /></g></g></svg>
