<svg width="535" height="213" viewBox="0 0 535 213" fill="none" xmlns="http://www.w3.org/2000/svg">
<path fill-rule="evenodd" clip-rule="evenodd" d="M370.76 202.38L378.3 200.872C378.577 202.536 379.305 203.836 380.484 204.772C381.697 205.673 383.292 206.124 385.268 206.124C387.036 206.124 388.474 205.725 389.584 204.928C390.728 204.096 391.3 203.073 391.3 201.86C391.3 200.924 390.936 200.144 390.208 199.52C389.48 198.861 388.526 198.341 387.348 197.96C386.204 197.579 384.938 197.215 383.552 196.868C382.165 196.521 380.761 196.088 379.34 195.568C377.953 195.048 376.67 194.424 375.492 193.696C374.348 192.968 373.412 191.945 372.684 190.628C371.956 189.276 371.592 187.681 371.592 185.844C371.592 182.793 372.874 180.245 375.44 178.2C378.04 176.12 381.212 175.08 384.956 175.08C388.734 175.08 391.854 176.016 394.316 177.888C396.777 179.76 398.233 182.204 398.684 185.22L391.144 186.728C390.866 185.133 390.156 183.868 389.012 182.932C387.902 181.961 386.464 181.476 384.696 181.476C383.101 181.476 381.801 181.857 380.796 182.62C379.79 183.348 379.288 184.284 379.288 185.428C379.288 186.329 379.652 187.092 380.38 187.716C381.108 188.305 382.044 188.791 383.188 189.172C384.366 189.519 385.649 189.865 387.036 190.212C388.422 190.559 389.809 191.009 391.196 191.564C392.617 192.084 393.9 192.725 395.044 193.488C396.222 194.251 397.176 195.325 397.904 196.712C398.632 198.099 398.996 199.745 398.996 201.652C398.996 204.737 397.644 207.32 394.94 209.4C392.27 211.48 388.977 212.52 385.06 212.52C381.142 212.52 377.901 211.601 375.336 209.764C372.77 207.927 371.245 205.465 370.76 202.38ZM404.035 212H428.267V205.396H411.471V175.6H404.035V212ZM467.269 212H459.313L456.193 204.096H440.177L437.057 212H429.517L444.285 175.6H452.501L467.269 212ZM448.185 183.868L442.777 197.492H453.593L448.185 183.868ZM491.989 175.6L481.641 203.836L471.241 175.6H463.337L477.325 212H485.541L499.529 175.6H491.989ZM525.379 212H533.335L518.567 175.6H510.351L495.583 212H503.123L506.243 204.096H522.259L525.379 212ZM508.843 197.492L514.251 183.868L519.659 197.492H508.843ZM358.281 212H365.717V175.6H358.281V212ZM343.783 212H336.347V182.204H325.219V175.6H354.963V182.204H343.783V212ZM320.883 212H328.839L314.071 175.6H305.855L291.087 212H298.627L301.747 204.096H317.763L320.883 212ZM304.347 197.492L309.755 183.868L315.163 197.492H304.347ZM280.607 198.324L289.655 212H280.815L272.287 199.052H267.607V212H260.171V175.6H275.823C279.671 175.6 282.774 176.709 285.131 178.928C287.489 181.112 288.667 183.903 288.667 187.3C288.667 189.9 287.939 192.188 286.483 194.164C285.062 196.14 283.103 197.527 280.607 198.324ZM275.823 182.204H267.607V192.24H275.823C277.383 192.24 278.631 191.772 279.567 190.836C280.538 189.9 281.023 188.704 281.023 187.248C281.023 185.792 280.538 184.596 279.567 183.66C278.631 182.689 277.383 182.204 275.823 182.204ZM253.744 196.92C252.808 195.36 251.473 194.181 249.74 193.384C252.34 191.547 253.64 188.947 253.64 185.584C253.64 182.672 252.635 180.28 250.624 178.408C248.613 176.536 245.961 175.6 242.668 175.6H226.808V212H244.228C247.521 212 250.173 211.081 252.184 209.244C254.195 207.372 255.2 204.997 255.2 202.12C255.2 200.179 254.715 198.445 253.744 196.92ZM234.036 181.996H241.94C243.396 181.996 244.557 182.395 245.424 183.192C246.325 183.989 246.776 185.029 246.776 186.312C246.776 187.595 246.325 188.652 245.424 189.484C244.557 190.316 243.396 190.732 241.94 190.732H234.036V181.996ZM242.928 205.604H234.036V196.868H242.928C244.384 196.868 245.545 197.284 246.412 198.116C247.279 198.913 247.712 199.953 247.712 201.236C247.712 202.519 247.279 203.576 246.412 204.408C245.545 205.205 244.384 205.604 242.928 205.604Z" fill="url(#paint0_linear_2_6)"/>
<path fill-rule="evenodd" clip-rule="evenodd" d="M37.8735 193.8C37.8735 199.069 39.7109 203.507 43.3855 207.112C47.0602 210.717 51.6015 212.52 57.0095 212.52C60.9962 212.52 64.4975 211.497 67.5135 209.452C70.5295 207.407 72.6962 204.911 74.0135 201.964L67.1495 199.312C66.2482 201.184 64.8962 202.727 63.0935 203.94C61.3255 205.119 59.2975 205.708 57.0095 205.708C53.7855 205.708 51.0642 204.564 48.8455 202.276C46.6615 199.988 45.5695 197.163 45.5695 193.8C45.5695 190.437 46.6615 187.612 48.8455 185.324C51.0642 183.036 53.7855 181.892 57.0095 181.892C59.2975 181.892 61.3255 182.499 63.0935 183.712C64.8962 184.891 66.2482 186.416 67.1495 188.288L74.0135 185.636C72.6962 182.689 70.5295 180.193 67.5135 178.148C64.4975 176.103 60.9962 175.08 57.0095 175.08C51.6015 175.08 47.0602 176.883 43.3855 180.488C39.7109 184.093 37.8735 188.531 37.8735 193.8ZM2.28809 175.6V197.7C2.28809 202.033 3.76142 205.587 6.70809 208.36C9.65475 211.133 13.4334 212.52 18.0441 212.52C22.6548 212.52 26.4334 211.133 29.3801 208.36C32.3268 205.587 33.8001 202.033 33.8001 197.7V175.6H26.3641V197.7C26.3641 200.057 25.6014 201.981 24.0761 203.472C22.5854 204.963 20.5748 205.708 18.0441 205.708C15.5481 205.708 13.5374 204.963 12.0121 203.472C10.4868 201.981 9.72409 200.057 9.72409 197.7V175.6H2.28809Z" fill="#EE7913"/>
<path fill-rule="evenodd" clip-rule="evenodd" d="M100.988 205.396L109.984 197.44C113.936 193.939 115.912 190.229 115.912 186.312C115.912 182.845 114.751 180.107 112.428 178.096C110.14 176.085 107.072 175.08 103.224 175.08C99.2372 175.08 96.0132 176.224 93.5519 178.512C91.0905 180.765 89.8599 183.851 89.8599 187.768H97.5559C97.5559 185.896 98.0412 184.457 99.0119 183.452C99.9825 182.412 101.317 181.892 103.016 181.892C104.576 181.892 105.841 182.308 106.812 183.14C107.783 183.937 108.268 185.047 108.268 186.468C108.268 188.409 107.263 190.316 105.252 192.188L90.0159 206.28V212H116.432V205.396H100.988ZM124.426 207.164C121.618 203.593 120.214 199.139 120.214 193.8C120.214 188.461 121.618 184.007 124.426 180.436C127.269 176.865 130.839 175.08 135.138 175.08C139.437 175.08 142.99 176.865 145.798 180.436C148.606 184.007 150.01 188.461 150.01 193.8C150.01 199.139 148.606 203.593 145.798 207.164C142.99 210.735 139.437 212.52 135.138 212.52C130.839 212.52 127.269 210.735 124.426 207.164ZM129.938 185.272C128.586 187.525 127.91 190.368 127.91 193.8C127.91 197.232 128.586 200.075 129.938 202.328C131.325 204.581 133.058 205.708 135.138 205.708C137.218 205.708 138.934 204.581 140.286 202.328C141.638 200.075 142.314 197.232 142.314 193.8C142.314 190.368 141.638 187.525 140.286 185.272C138.934 183.019 137.218 181.892 135.138 181.892C133.058 181.892 131.325 183.019 129.938 185.272ZM164.972 205.396L173.968 197.44C177.92 193.939 179.896 190.229 179.896 186.312C179.896 182.845 178.735 180.107 176.412 178.096C174.124 176.085 171.056 175.08 167.208 175.08C163.222 175.08 159.998 176.224 157.536 178.512C155.075 180.765 153.844 183.851 153.844 187.768H161.54C161.54 185.896 162.026 184.457 162.996 183.452C163.967 182.412 165.302 181.892 167 181.892C168.56 181.892 169.826 182.308 170.796 183.14C171.767 183.937 172.252 185.047 172.252 186.468C172.252 188.409 171.247 190.316 169.236 192.188L154 206.28V212H180.416V205.396H164.972ZM207.244 198.532V175.6H199.652L181.712 198.532V205.084H199.808V212H207.244V205.084H211.716V198.532H207.244ZM189.772 198.532L199.808 185.584V198.532H189.772Z" fill="#EE7913"/>
<path fill-rule="evenodd" clip-rule="evenodd" d="M443.635 142.002L443.385 141.57L382.195 58.5935L383.805 57.4065L434.206 125.753L387.635 45.5019L389.365 44.4981L445.059 140.471L449.805 146.906L448.195 148.094L443.683 141.974L443.635 142.002ZM354.82 58.0725L295.82 142.572L294.18 141.428L296.303 138.388L295.63 138.007L348.63 44.5069L350.37 45.4931L303.801 127.649L353.18 56.9275L354.82 58.0725ZM323 148H415V146H323V148ZM415.5 159.5H323V157.5H415.5V159.5Z" fill="#639B30"/>
<path d="M112.624 86.6507L93.2032 67.4507H69.4102V90.3125L89.6768 110.512V86.6507H112.624Z" fill="#EE7913"/>
<path d="M323.539 77.1947V135.168C307.591 146.806 283.238 154.78 262.334 154.78C216.645 154.78 181.948 121.593 181.948 77.8421C181.948 34.3083 217.292 1.33546 264.275 1.33546C286.689 1.33546 309.531 9.95626 324.833 23.3173L305.652 47.6715C294.445 37.3269 278.93 30.8608 264.275 30.8608C237.55 30.8608 216.861 51.3344 216.861 77.8421C216.861 104.565 237.766 125.041 264.489 125.041C273.54 125.041 284.317 121.808 294.015 116.851V77.1957L323.539 77.1947Z" fill="url(#paint1_linear_2_6)"/>
<path d="M533.23 17.2821L520.084 45.5136C504.137 36.0309 485.171 29.9968 473.103 29.9968C461.681 29.9968 453.923 34.0917 453.923 42.2816C453.923 70.0832 534.309 54.5664 534.094 108.875C534.094 138.4 508.446 154.348 475.043 154.348C450.258 154.348 425.474 144.865 408.45 130.426L422.027 102.625C437.545 116.419 459.525 125.254 475.473 125.254C489.483 125.254 497.887 120.082 497.887 110.815C497.887 82.368 417.501 98.9621 417.501 45.5147C417.501 18.1451 440.992 0.903465 475.906 0.903465C497.026 0.902399 518.145 7.36853 533.23 17.2821Z" fill="url(#paint2_linear_2_6)"/>
<path d="M122.335 96.2507H99.2769V120.08L138.511 159.184H163.277V136.726L122.335 96.2507Z" fill="url(#paint3_linear_2_6)"/>
<path d="M122.335 96.2507L112.624 86.6507H89.6768V110.512L99.2768 120.08V96.2507H122.335Z" fill="#F0E64A"/>
<path d="M92.9323 125.972C89.456 126.772 85.8411 127.206 82.112 127.206C55.44 127.206 32.7563 105.274 32.7563 76.8363C32.7563 48.3989 55.1904 26.9493 82.112 26.9493C109.034 26.9493 130.47 48.3979 130.47 76.8363C130.47 81.4613 129.894 85.9115 128.829 90.1269L153.516 114.81C159.881 103.658 163.441 90.6912 163.441 76.6464C163.441 32.8171 128.464 0 81.6128 0C34.976 0 0 32.6016 0 76.6464C0 120.907 34.9771 154.157 81.6128 154.157C93.6523 154.157 104.903 151.942 114.982 147.913L92.9323 125.972Z" fill="url(#paint4_linear_2_6)"/>
<path d="M69.4102 67.4507L163.277 159.184V136.726L122.335 96.2507L112.625 86.6507L93.2039 67.4507H69.4102Z" fill="white" fill-opacity="0.172549"/>
<path d="M335 158L352.5 46.5H363.5L345.5 158H335Z" fill="url(#paint5_linear_2_6)"/>
<path d="M396 158L374.5 46.5H385.5L407 158H396Z" fill="url(#paint6_linear_2_6)"/>
<path fill-rule="evenodd" clip-rule="evenodd" d="M335 19L351.144 11H382.957L401 19H335ZM333.5 34H401L386 46.5H352L333.5 34Z" fill="url(#paint7_linear_2_6)"/>
<path d="M330 16.5V34H405.5V16.5H330Z" fill="#EE7913"/>
<rect x="351" width="32" height="11" fill="url(#paint8_linear_2_6)"/>
<rect x="333.25" y="20.75" width="9" height="9" fill="url(#paint9_linear_2_6)"/>
<rect x="345.25" y="20.75" width="9" height="9" fill="url(#paint10_linear_2_6)"/>
<rect x="357.25" y="20.75" width="9" height="9" fill="url(#paint11_linear_2_6)"/>
<rect x="369.25" y="20.75" width="9" height="9" fill="url(#paint12_linear_2_6)"/>
<rect x="381.25" y="20.75" width="9" height="9" fill="url(#paint13_linear_2_6)"/>
<rect x="393.25" y="20.75" width="9" height="9" fill="url(#paint14_linear_2_6)"/>
<defs>
<linearGradient id="paint0_linear_2_6" x1="382.566" y1="237.04" x2="382.303" y2="160.226" gradientUnits="userSpaceOnUse">
<stop stop-color="#589632"/>
<stop offset="1" stop-color="#93B023"/>
</linearGradient>
<linearGradient id="paint1_linear_2_6" x1="255.034" y1="158.953" x2="252.644" y2="1.83327" gradientUnits="userSpaceOnUse">
<stop stop-color="#589632"/>
<stop offset="1" stop-color="#93B023"/>
</linearGradient>
<linearGradient id="paint2_linear_2_6" x1="472.084" y1="155.651" x2="469.694" y2="-1.46859" gradientUnits="userSpaceOnUse">
<stop stop-color="#589632"/>
<stop offset="1" stop-color="#93B023"/>
</linearGradient>
<linearGradient id="paint3_linear_2_6" x1="131.778" y1="161.354" x2="129.369" y2="2.91489" gradientUnits="userSpaceOnUse">
<stop stop-color="#589632"/>
<stop offset="1" stop-color="#93B023"/>
</linearGradient>
<linearGradient id="paint4_linear_2_6" x1="83.0132" y1="161.568" x2="80.6235" y2="4.44928" gradientUnits="userSpaceOnUse">
<stop stop-color="#589632"/>
<stop offset="1" stop-color="#93B023"/>
</linearGradient>
<linearGradient id="paint5_linear_2_6" x1="381.5" y1="47" x2="340" y2="159" gradientUnits="userSpaceOnUse">
<stop stop-color="#FF9B44"/>
<stop offset="1" stop-color="#EE7913"/>
</linearGradient>
<linearGradient id="paint6_linear_2_6" x1="381.5" y1="47" x2="340" y2="159" gradientUnits="userSpaceOnUse">
<stop stop-color="#FF9B44"/>
<stop offset="1" stop-color="#EE7913"/>
</linearGradient>
<linearGradient id="paint7_linear_2_6" x1="399.125" y1="11.9861" x2="364.569" y2="71.1202" gradientUnits="userSpaceOnUse">
<stop stop-color="#FFEFE1"/>
<stop offset="1" stop-color="#EE7913"/>
</linearGradient>
<linearGradient id="paint8_linear_2_6" x1="382" y1="-8.59357e-07" x2="351" y2="11" gradientUnits="userSpaceOnUse">
<stop stop-color="#F1903C"/>
<stop offset="1" stop-color="#EE7913"/>
</linearGradient>
<linearGradient id="paint9_linear_2_6" x1="342" y1="21" x2="332" y2="30" gradientUnits="userSpaceOnUse">
<stop stop-color="white" stop-opacity="0"/>
<stop offset="1" stop-color="white"/>
</linearGradient>
<linearGradient id="paint10_linear_2_6" x1="354" y1="21" x2="344" y2="30" gradientUnits="userSpaceOnUse">
<stop stop-color="white" stop-opacity="0"/>
<stop offset="1" stop-color="white"/>
</linearGradient>
<linearGradient id="paint11_linear_2_6" x1="366" y1="21" x2="356" y2="30" gradientUnits="userSpaceOnUse">
<stop stop-color="white" stop-opacity="0"/>
<stop offset="1" stop-color="white"/>
</linearGradient>
<linearGradient id="paint12_linear_2_6" x1="378" y1="21" x2="368" y2="30" gradientUnits="userSpaceOnUse">
<stop stop-color="white" stop-opacity="0"/>
<stop offset="1" stop-color="white"/>
</linearGradient>
<linearGradient id="paint13_linear_2_6" x1="390" y1="21" x2="380" y2="30" gradientUnits="userSpaceOnUse">
<stop stop-color="white" stop-opacity="0"/>
<stop offset="1" stop-color="white"/>
</linearGradient>
<linearGradient id="paint14_linear_2_6" x1="402" y1="21" x2="392" y2="30" gradientUnits="userSpaceOnUse">
<stop stop-color="white" stop-opacity="0"/>
<stop offset="1" stop-color="white"/>
</linearGradient>
</defs>
</svg>
