<?xml version="1.0" encoding="UTF-8" standalone="no"?>
<!-- Created with Inkscape (http://www.inkscape.org/) -->

<svg
   xmlns:dc="http://purl.org/dc/elements/1.1/"
   xmlns:cc="http://creativecommons.org/ns#"
   xmlns:rdf="http://www.w3.org/1999/02/22-rdf-syntax-ns#"
   xmlns:svg="http://www.w3.org/2000/svg"
   xmlns="http://www.w3.org/2000/svg"
   xmlns:sodipodi="http://sodipodi.sourceforge.net/DTD/sodipodi-0.dtd"
   xmlns:inkscape="http://www.inkscape.org/namespaces/inkscape"
   width="47.629997mm"
   height="17.689999mm"
   viewBox="0 0 168.76771 62.681097"
   id="svg6471"
   version="1.1"
   inkscape:version="0.91 r13725"
   sodipodi:docname="osgeo_project.svg">
  <defs
     id="defs6473" />
  <sodipodi:namedview
     id="base"
     pagecolor="#ffffff"
     bordercolor="#666666"
     borderopacity="1.0"
     inkscape:pageopacity="0.0"
     inkscape:pageshadow="2"
     inkscape:zoom="1"
     inkscape:cx="76.815286"
     inkscape:cy="-85.637805"
     inkscape:document-units="px"
     inkscape:current-layer="layer1"
     showgrid="false"
     fit-margin-top="0"
     fit-margin-left="0"
     fit-margin-right="0"
     fit-margin-bottom="0"
     inkscape:window-width="1208"
     inkscape:window-height="697"
     inkscape:window-x="65"
     inkscape:window-y="-8"
     inkscape:window-maximized="1" />
  <metadata
     id="metadata6476">
    <rdf:RDF>
      <cc:Work
         rdf:about="">
        <dc:format>image/svg+xml</dc:format>
        <dc:type
           rdf:resource="http://purl.org/dc/dcmitype/StillImage" />
        <dc:title></dc:title>
      </cc:Work>
    </rdf:RDF>
  </metadata>
  <g
     inkscape:label="Layer 1"
     inkscape:groupmode="layer"
     id="layer1"
     transform="translate(-221.33043,-215.30737)">
    <g
       transform="matrix(0.03543307,0,0,0.03543307,-242.02783,155.46091)"
       id="g809"
       class="com.sun.star.drawing.PolyPolygonShape">
      <g
         id="id37">
        <rect
           style="fill:none;stroke:none"
           id="rect812"
           height="491"
           width="1645"
           y="2967"
           x="14823"
           class="BoundingBox" />
      </g>
    </g>
    <g
       transform="matrix(0.03543307,0,0,0.03543307,-242.02783,155.46091)"
       id="g814"
       class="com.sun.star.drawing.ClosedBezierShape">
      <g
         id="id38">
        <rect
           style="fill:none;stroke:none"
           id="rect817"
           height="491"
           width="1644"
           y="2967"
           x="14822"
           class="BoundingBox" />
        <path
           style="fill:#0b3a42;stroke:none"
           inkscape:connector-curvature="0"
           id="path819"
           d="m 14826,3357 c -2,-1 -3,-3 -3,-5 l 0,-325 c 0,-5 1,-9 5,-12 4,-4 8,-5 13,-5 l 85,0 c 20,0 37,5 55,13 16,11 30,23 38,41 10,16 15,34 15,54 0,20 -5,37 -15,54 -8,16 -22,30 -38,38 -18,11 -35,16 -55,16 l -62,0 0,126 c 0,2 -1,4 -2,5 -1,2 -3,2 -5,2 l -26,0 c -3,0 -4,0 -5,-2 z m 97,-170 c 13,0 24,-3 35,-9 10,-6 19,-15 25,-25 6,-12 9,-23 9,-35 0,-13 -3,-24 -9,-36 -6,-10 -15,-18 -25,-25 -11,-6 -22,-8 -35,-8 l -59,0 0,138 59,0 z m 166,170 c -2,-1 -2,-3 -2,-5 l 0,-24 c 0,-1 0,-3 2,-5 2,-1 3,-1 5,-1 l 42,0 0,-212 -42,0 c -2,0 -3,-1 -5,-2 -2,-2 -2,-3 -2,-5 l 0,-22 c 0,-2 0,-4 2,-5 2,-1 3,-2 5,-2 l 63,0 c 5,0 9,2 12,6 4,2 5,7 5,13 l 0,25 29,-23 c 13,-10 23,-16 30,-19 8,-4 15,-5 24,-5 l 15,0 c 1,0 4,1 5,3 1,1 1,2 1,5 l 0,24 c 0,2 0,3 -1,5 -1,1 -4,2 -5,2 l -11,0 c -9,0 -16,1 -24,5 -8,4 -19,11 -33,23 l -30,24 0,160 58,0 c 3,0 4,0 5,1 1,2 3,4 3,5 l 0,24 c 0,2 -2,4 -3,5 -1,2 -2,2 -5,2 l -138,0 c -2,0 -3,0 -5,-2 z m 283,-6 c -16,-10 -29,-23 -39,-40 -10,-16 -15,-35 -15,-55 l 0,-78 c 0,-20 5,-39 15,-55 10,-18 23,-30 39,-41 18,-10 35,-15 55,-15 20,0 38,5 55,15 16,11 30,23 39,41 10,16 15,35 15,55 l 0,78 c 0,20 -5,39 -15,55 -9,17 -23,30 -39,40 -17,10 -35,15 -55,15 -20,0 -37,-5 -55,-15 z m 90,-33 c 11,-5 19,-13 25,-25 6,-10 10,-22 10,-35 l 0,-83 c 0,-13 -4,-25 -10,-35 -6,-11 -14,-20 -25,-26 -10,-6 -22,-9 -35,-9 -12,0 -24,3 -35,9 -11,6 -19,15 -25,26 -6,10 -10,22 -10,35 l 0,83 c 0,13 4,25 10,35 6,12 14,20 25,25 11,7 23,10 35,10 13,0 25,-3 35,-10 z m 200,-295 c -1,-2 -2,-3 -2,-6 l 0,-42 c 0,-3 1,-4 2,-5 2,-2 3,-3 5,-3 l 24,0 c 3,0 4,1 5,3 1,1 3,2 3,5 l 0,42 c 0,3 -2,4 -3,6 -1,2 -2,2 -5,2 l -24,0 c -2,0 -3,0 -5,-2 z m -74,431 c -2,-1 -2,-3 -2,-5 l 0,-23 c 0,-1 0,-2 2,-5 2,-1 3,-1 5,-1 l 29,0 c 11,0 20,-4 28,-11 6,-8 10,-17 10,-28 l 0,-270 -67,0 c -2,0 -3,0 -5,-2 -2,-1 -2,-3 -2,-5 l 0,-23 c 0,-2 0,-4 2,-5 2,-1 3,-2 5,-2 l 88,0 c 5,0 9,2 13,6 3,2 5,7 5,13 l 0,288 c 0,20 -7,39 -20,53 -13,15 -30,23 -53,23 l -33,0 c -2,0 -3,-2 -5,-3 z m 244,-109 c -16,-10 -30,-24 -38,-40 -10,-18 -15,-36 -15,-56 l 0,-71 c 0,-20 5,-39 15,-55 8,-18 22,-30 38,-41 18,-10 35,-15 55,-15 20,0 38,5 54,15 18,11 30,23 40,41 10,16 15,35 15,55 l 0,34 c 0,5 -2,9 -6,12 -3,4 -8,5 -13,5 l -160,0 0,23 c 0,12 4,24 10,35 7,11 14,19 25,25 10,6 23,10 35,10 l 73,0 c 1,0 4,0 5,1 1,2 1,4 1,5 l 0,24 c 0,2 0,4 -1,5 -1,2 -4,2 -5,2 l -73,0 c -20,0 -37,-5 -55,-14 z m 124,-152 0,-18 c 0,-13 -2,-25 -9,-35 -6,-11 -15,-20 -25,-26 -11,-6 -22,-9 -35,-9 -12,0 -25,3 -35,9 -11,6 -18,15 -25,26 -6,10 -10,22 -10,35 l 0,18 139,0 z m 155,158 c -16,-10 -30,-23 -40,-40 -8,-16 -13,-35 -13,-55 l 0,-78 c 0,-20 5,-39 13,-55 10,-18 24,-30 40,-41 17,-10 35,-15 55,-15 14,0 28,3 40,9 14,5 25,13 34,22 3,2 4,5 4,7 0,3 -1,5 -4,8 -2,3 -6,7 -11,11 -3,2 -5,2 -8,2 -2,0 -5,0 -7,-2 -14,-13 -30,-19 -48,-19 -12,0 -25,3 -35,9 -11,6 -20,15 -25,26 -6,10 -10,22 -10,35 l 0,83 c 0,13 4,25 10,35 5,12 14,20 25,25 10,7 23,10 35,10 18,0 34,-6 48,-18 2,-3 5,-4 7,-4 3,0 5,1 8,4 4,2 7,6 11,11 3,1 4,4 4,7 0,3 -1,5 -4,7 -9,10 -20,17 -34,22 -12,5 -26,9 -40,9 -20,0 -38,-5 -55,-15 z m 240,-14 c -13,-15 -20,-32 -20,-55 l 0,-171 -33,0 c -2,0 -4,-1 -5,-2 -2,-1 -2,-3 -2,-5 l 0,-23 c 0,-2 0,-4 2,-5 1,-1 3,-2 5,-2 l 33,0 0,-53 c 0,-1 0,-4 2,-5 1,-1 3,-1 5,-1 l 25,0 c 2,0 3,0 5,1 1,1 2,4 2,5 l 0,53 88,0 c 2,0 3,1 5,2 2,1 2,3 2,5 l 0,23 c 0,2 0,4 -2,5 -2,2 -3,2 -5,2 l -88,0 0,166 c 0,14 4,24 11,31 9,9 19,13 32,13 l 45,1 c 2,0 3,0 5,1 2,2 2,4 2,5 l 0,24 c 0,2 0,4 -2,5 -2,2 -3,2 -5,2 l -50,0 c -24,0 -43,-7 -57,-22 z" />
      </g>
    </g>
    <g
       transform="matrix(0.03543307,0,0,0.03543307,-242.02783,155.46091)"
       id="g821"
       class="com.sun.star.drawing.PolyPolygonShape">
      <g
         id="id39">
        <rect
           style="fill:none;stroke:none"
           id="rect824"
           height="798"
           width="568"
           y="2068"
           x="14820"
           class="BoundingBox" />
      </g>
    </g>
    <g
       transform="matrix(0.03543307,0,0,0.03543307,-242.02783,155.46091)"
       id="g826"
       class="com.sun.star.drawing.ClosedBezierShape">
      <g
         id="id40">
        <rect
           style="fill:none;stroke:none"
           id="rect829"
           height="797"
           width="567"
           y="2068"
           x="14820"
           class="BoundingBox" />
        <path
           style="fill:#4db05b;stroke:none"
           inkscape:connector-curvature="0"
           id="path831"
           d="m 14962,2826 c -44,-25 -79,-60 -104,-103 -25,-43 -38,-91 -38,-142 l 0,-229 c 0,-52 13,-100 38,-143 25,-43 60,-78 104,-103 42,-25 90,-38 141,-38 51,0 99,13 142,38 43,25 77,60 103,103 25,43 38,91 38,143 l 0,229 c 0,51 -13,99 -38,142 -26,43 -60,78 -103,103 -43,25 -91,38 -142,38 -51,0 -99,-13 -141,-38 z m 217,-108 c 23,-15 43,-34 57,-59 14,-24 20,-50 20,-78 l 0,-229 c 0,-29 -6,-55 -20,-79 -14,-25 -34,-45 -57,-59 -23,-13 -48,-21 -76,-21 -26,0 -53,8 -76,21 -24,15 -43,34 -57,59 -14,24 -20,50 -20,79 l 0,229 c 0,28 6,54 20,78 14,25 33,45 57,59 23,13 48,21 76,21 26,-1 53,-8 76,-21 z" />
      </g>
    </g>
    <g
       transform="matrix(0.03543307,0,0,0.03543307,-242.02783,155.46091)"
       id="g833"
       class="com.sun.star.drawing.PolyPolygonShape">
      <g
         id="id41">
        <rect
           style="fill:none;stroke:none"
           id="rect836"
           height="799"
           width="481"
           y="2066"
           x="15479"
           class="BoundingBox" />
      </g>
    </g>
    <g
       transform="matrix(0.03543307,0,0,0.03543307,-242.02783,155.46091)"
       id="g838"
       class="com.sun.star.drawing.ClosedBezierShape">
      <g
         id="id42">
        <rect
           style="fill:none;stroke:none"
           id="rect841"
           height="797"
           width="479"
           y="2067"
           x="15479"
           class="BoundingBox" />
        <path
           style="fill:#4db05b;stroke:none"
           inkscape:connector-curvature="0"
           id="path843"
           d="m 15592,2844 c -38,-12 -71,-30 -104,-52 -4,-2 -6,-5 -8,-12 -2,-5 -1,-10 0,-13 l 38,-68 c 5,-9 11,-14 20,-14 6,0 11,3 16,5 54,34 103,50 151,50 37,0 67,-10 89,-27 21,-19 32,-43 32,-72 0,-20 -5,-36 -16,-50 -10,-12 -25,-23 -43,-33 -17,-9 -44,-20 -77,-34 l -32,-14 c -49,-20 -89,-48 -121,-79 -34,-32 -50,-80 -50,-142 0,-44 8,-82 29,-116 20,-33 46,-60 82,-78 34,-19 75,-28 122,-28 37,0 75,6 111,19 38,14 72,30 102,52 3,2 6,5 8,12 2,5 0,10 -1,13 l -36,68 c -4,9 -11,14 -20,14 -6,0 -11,-3 -16,-5 -28,-18 -56,-32 -81,-39 -25,-8 -47,-13 -67,-13 -32,0 -57,9 -77,27 -17,17 -27,40 -27,67 0,28 11,52 30,69 21,19 54,36 99,55 5,3 30,13 72,30 43,18 77,43 102,77 25,33 37,73 37,120 0,44 -10,84 -31,117 -21,35 -50,62 -88,82 -38,20 -81,30 -131,30 -39,1 -76,-7 -114,-18 z" />
      </g>
    </g>
    <g
       transform="matrix(0.03543307,0,0,0.03543307,-242.02783,155.46091)"
       id="g845"
       class="com.sun.star.drawing.PolyPolygonShape">
      <g
         id="id43">
        <rect
           style="fill:none;stroke:none"
           id="rect848"
           height="798"
           width="567"
           y="2068"
           x="16054"
           class="BoundingBox" />
      </g>
    </g>
    <g
       transform="matrix(0.03543307,0,0,0.03543307,-242.02783,155.46091)"
       id="g850"
       class="com.sun.star.drawing.ClosedBezierShape">
      <g
         id="id44">
        <rect
           style="fill:none;stroke:none"
           id="rect853"
           height="797"
           width="566"
           y="2068"
           x="16054"
           class="BoundingBox" />
        <path
           style="fill:#003a40;stroke:none"
           inkscape:connector-curvature="0"
           id="path855"
           d="m 16196,2826 c -44,-25 -78,-60 -104,-103 -25,-43 -38,-91 -38,-142 l 0,-229 c 0,-52 13,-100 38,-143 25,-43 60,-78 104,-103 42,-25 88,-38 141,-38 45,0 86,8 125,24 39,16 72,40 99,70 4,5 6,11 6,19 0,6 -2,15 -8,21 l -47,49 c -6,6 -11,8 -17,8 -8,0 -14,-2 -19,-8 -36,-39 -81,-58 -138,-58 -26,0 -52,8 -75,21 -24,15 -42,34 -56,59 -14,24 -22,50 -22,79 l 0,229 c 0,28 8,54 22,78 14,25 32,45 56,59 23,13 48,21 75,21 28,0 53,-8 77,-21 23,-14 42,-32 55,-57 14,-22 20,-49 20,-76 l 0,-53 -143,0 c -6,0 -13,-2 -18,-6 -3,-4 -5,-10 -5,-16 l 0,-78 c 0,-5 2,-11 5,-16 5,-4 11,-6 18,-6 l 225,0 c 13,0 24,5 33,13 9,9 14,20 14,33 l 0,125 c 0,51 -14,99 -39,142 -25,43 -60,78 -103,103 -44,25 -90,38 -140,38 -53,0 -99,-13 -141,-38 z" />
      </g>
    </g>
    <g
       transform="matrix(0.03543307,0,0,0.03543307,-242.02783,155.46091)"
       id="g857"
       class="com.sun.star.drawing.PolyPolygonShape">
      <g
         id="id45">
        <rect
           style="fill:none;stroke:none"
           id="rect860"
           height="633"
           width="513"
           y="2220"
           x="16724"
           class="BoundingBox" />
      </g>
    </g>
    <g
       transform="matrix(0.03543307,0,0,0.03543307,-242.02783,155.46091)"
       id="g862"
       class="com.sun.star.drawing.ClosedBezierShape">
      <g
         id="id46">
        <rect
           style="fill:none;stroke:none"
           id="rect865"
           height="632"
           width="512"
           y="2220"
           x="16724"
           class="BoundingBox" />
        <path
           style="fill:#003a40;stroke:none"
           inkscape:connector-curvature="0"
           id="path867"
           d="m 16852,2815 c -40,-23 -70,-54 -93,-93 -22,-39 -35,-83 -35,-129 l 0,-116 c 0,-47 11,-90 35,-129 23,-39 53,-70 93,-93 39,-22 81,-35 128,-35 46,0 88,11 127,35 39,23 70,54 93,93 22,40 35,82 35,129 l 0,72 c 0,13 -5,23 -14,33 -7,9 -19,12 -32,12 l -335,0 0,5 c 0,37 12,65 37,90 25,26 55,38 90,38 l 169,0 c 6,0 12,3 16,6 5,5 6,10 6,17 l 0,78 c 0,5 -1,12 -6,17 -4,3 -9,6 -16,6 l -169,0 c -48,-1 -92,-14 -129,-36 z m 253,-336 0,-10 c 0,-35 -13,-65 -38,-90 -24,-25 -54,-38 -89,-38 -34,0 -65,13 -89,38 -23,25 -37,55 -37,90 l 0,10 253,0 z" />
      </g>
    </g>
    <g
       transform="matrix(0.03543307,0,0,0.03543307,-242.02783,155.46091)"
       id="g869"
       class="com.sun.star.drawing.PolyPolygonShape">
      <g
         id="id47">
        <rect
           style="fill:none;stroke:none"
           id="rect872"
           height="646"
           width="513"
           y="2220"
           x="17327"
           class="BoundingBox" />
      </g>
    </g>
    <g
       transform="matrix(0.03543307,0,0,0.03543307,-242.02783,155.46091)"
       id="g874"
       class="com.sun.star.drawing.ClosedBezierShape">
      <g
         id="id48">
        <rect
           style="fill:none;stroke:none"
           id="rect877"
           height="644"
           width="511"
           y="2220"
           x="17328"
           class="BoundingBox" />
        <path
           style="fill:#003a40;stroke:none"
           inkscape:connector-curvature="0"
           id="path879"
           d="m 17454,2830 c -38,-23 -70,-53 -92,-92 -23,-39 -34,-80 -34,-125 l 0,-143 c 0,-45 11,-86 34,-125 22,-39 54,-69 92,-91 39,-23 82,-34 128,-34 48,0 89,11 128,34 40,22 70,54 93,91 22,39 35,80 35,125 l 0,142 c 0,45 -12,87 -35,125 -23,39 -53,69 -93,91 -39,23 -80,34 -128,34 -46,2 -90,-10 -128,-32 z m 217,-128 c 24,-25 36,-55 36,-90 l 0,-142 c 0,-35 -11,-63 -36,-90 -25,-25 -55,-36 -89,-36 -35,0 -65,11 -90,36 -24,27 -36,55 -36,90 l 0,142 c 0,35 11,65 36,90 25,25 55,36 90,36 35,0 64,-12 89,-36 z" />
      </g>
    </g>
    <g
       transform="matrix(0.03543307,0,0,0.03543307,-242.02783,155.46091)"
       id="g881"
       class="com.sun.star.drawing.PolyPolygonShape">
      <g
         id="id49">
        <rect
           style="fill:none;stroke:none"
           id="rect884"
           height="742"
           width="586"
           y="1689"
           x="13232"
           class="BoundingBox" />
      </g>
    </g>
    <g
       transform="matrix(0.03543307,0,0,0.03543307,-242.02783,155.46091)"
       id="g886"
       class="com.sun.star.drawing.ClosedBezierShape">
      <g
         id="id50">
        <rect
           style="fill:none;stroke:none"
           id="rect889"
           height="741"
           width="585"
           y="1689"
           x="13232"
           class="BoundingBox" />
        <path
           style="fill:#4db05b;stroke:none"
           inkscape:connector-curvature="0"
           id="path891"
           d="m 13816,2002 0,-155 0,-158 -98,171 c -267,59 -468,288 -486,569 l 157,0 c 18,-227 200,-408 427,-427 z" />
      </g>
    </g>
    <g
       transform="matrix(0.03543307,0,0,0.03543307,-242.02783,155.46091)"
       id="g893"
       class="com.sun.star.drawing.PolyPolygonShape">
      <g
         id="id51">
        <rect
           style="fill:none;stroke:none"
           id="rect896"
           height="586"
           width="742"
           y="2504"
           x="13077"
           class="BoundingBox" />
      </g>
    </g>
    <g
       transform="matrix(0.03543307,0,0,0.03543307,-242.02783,155.46091)"
       id="g898"
       class="com.sun.star.drawing.ClosedBezierShape">
      <g
         id="id52">
        <rect
           style="fill:none;stroke:none"
           id="rect901"
           height="585"
           width="741"
           y="2504"
           x="13077"
           class="BoundingBox" />
        <path
           style="fill:#003a40;stroke:none"
           inkscape:connector-curvature="0"
           id="path903"
           d="m 13390,2504 -155,0 -158,0 171,98 c 59,266 288,468 569,486 l 0,-157 c -227,-20 -408,-200 -427,-427 z" />
      </g>
    </g>
    <g
       transform="matrix(0.03543307,0,0,0.03543307,-242.02783,155.46091)"
       id="g905"
       class="com.sun.star.drawing.PolyPolygonShape">
      <g
         id="id53">
        <rect
           style="fill:none;stroke:none"
           id="rect908"
           height="586"
           width="742"
           y="1845"
           x="13891"
           class="BoundingBox" />
      </g>
    </g>
    <g
       transform="matrix(0.03543307,0,0,0.03543307,-242.02783,155.46091)"
       id="g910"
       class="com.sun.star.drawing.ClosedBezierShape">
      <g
         id="id54">
        <rect
           style="fill:none;stroke:none"
           id="rect913"
           height="585"
           width="741"
           y="1845"
           x="13891"
           class="BoundingBox" />
        <path
           style="fill:#003a40;stroke:none"
           inkscape:connector-curvature="0"
           id="path915"
           d="m 14317,2429 156,0 158,0 -172,-98 c -59,-267 -288,-468 -568,-486 l 0,157 c 227,18 407,200 426,427 z" />
      </g>
    </g>
    <g
       transform="matrix(0.03543307,0,0,0.03543307,-242.02783,155.46091)"
       id="g917"
       class="com.sun.star.drawing.PolyPolygonShape">
      <g
         id="id55">
        <rect
           style="fill:none;stroke:none"
           id="rect920"
           height="742"
           width="586"
           y="2504"
           x="13890"
           class="BoundingBox" />
      </g>
    </g>
    <g
       transform="matrix(0.03543307,0,0,0.03543307,-242.02783,155.46091)"
       id="g922"
       class="com.sun.star.drawing.ClosedBezierShape">
      <g
         id="id56">
        <rect
           style="fill:none;stroke:none"
           id="rect925"
           height="741"
           width="585"
           y="2504"
           x="13890"
           class="BoundingBox" />
        <path
           style="fill:#4db05b;stroke:none"
           inkscape:connector-curvature="0"
           id="path927"
           d="m 13890,2930 0,156 0,158 98,-172 c 266,-59 468,-288 486,-568 l -157,0 c -19,227 -199,407 -427,426 z" />
      </g>
    </g>
    <g
       transform="matrix(0.03543307,0,0,0.03543307,-242.02783,155.46091)"
       id="g929"
       class="com.sun.star.drawing.PolyPolygonShape">
      <g
         id="id57">
        <rect
           style="fill:none;stroke:none"
           id="rect932"
           height="485"
           width="485"
           y="2225"
           x="13612"
           class="BoundingBox" />
      </g>
    </g>
    <g
       transform="matrix(0.03543307,0,0,0.03543307,-242.02783,155.46091)"
       id="g934"
       class="com.sun.star.drawing.ClosedBezierShape">
      <g
         id="id58">
        <rect
           style="fill:none;stroke:none"
           id="rect937"
           height="483"
           width="483"
           y="2225"
           x="13612"
           class="BoundingBox" />
        <path
           style="fill:#003a40;stroke:none"
           inkscape:connector-curvature="0"
           id="path939"
           d="m 13901,2418 -289,-193 193,289 289,193 -193,-289 z m -49,81 c -18,0 -33,-15 -33,-34 0,-18 16,-33 33,-33 19,0 34,16 34,33 0,19 -15,34 -34,34 z" />
      </g>
    </g>
    <g
       transform="matrix(0.03543307,0,0,0.03543307,-242.02783,155.46091)"
       id="g941"
       class="com.sun.star.drawing.PolyPolygonShape">
      <g
         id="id59">
        <rect
           style="fill:none;stroke:none"
           id="rect944"
           height="461"
           width="461"
           y="2417"
           x="13445"
           class="BoundingBox" />
      </g>
    </g>
    <g
       transform="matrix(0.03543307,0,0,0.03543307,-242.02783,155.46091)"
       id="g946"
       class="com.sun.star.drawing.PolyPolygonShape">
      <g
         id="id60">
        <rect
           style="fill:none;stroke:none"
           id="rect949"
           height="461"
           width="460"
           y="2417"
           x="13444"
           class="BoundingBox" />
        <path
           style="fill:#4db05b;stroke:none"
           inkscape:connector-curvature="0"
           id="path951"
           d="m 13805,2579 48,298 50,-298 -97,-65 -65,-97 -296,49 296,49 -128,193 192,-129 z" />
      </g>
    </g>
    <g
       transform="matrix(0.03543307,0,0,0.03543307,-242.02783,155.46091)"
       id="g953"
       class="com.sun.star.drawing.PolyPolygonShape">
      <g
         id="id61">
        <rect
           style="fill:none;stroke:none"
           id="rect956"
           height="462"
           width="461"
           y="2058"
           x="13803"
           class="BoundingBox" />
      </g>
    </g>
    <g
       transform="matrix(0.03543307,0,0,0.03543307,-242.02783,155.46091)"
       id="g958"
       class="com.sun.star.drawing.PolyPolygonShape">
      <g
         id="id62">
        <rect
           style="fill:none;stroke:none"
           id="rect961"
           height="459"
           width="461"
           y="2058"
           x="13803"
           class="BoundingBox" />
        <path
           style="fill:#4db05b;stroke:none"
           inkscape:connector-curvature="0"
           id="path963"
           d="m 13899,2419 66,97 297,-50 -297,-47 129,-193 -193,128 -49,-296 -49,296 96,65 z" />
      </g>
    </g>
  </g>
</svg>
