<?xml version="1.0" encoding="UTF-8" standalone="no"?>
<!-- Generator: Adobe Illustrator 16.0.0, SVG Export Plug-In . SVG Version: 6.00 Build 0)  -->

<svg
   xmlns:dc="http://purl.org/dc/elements/1.1/"
   xmlns:cc="http://creativecommons.org/ns#"
   xmlns:rdf="http://www.w3.org/1999/02/22-rdf-syntax-ns#"
   xmlns:svg="http://www.w3.org/2000/svg"
   xmlns="http://www.w3.org/2000/svg"
   xmlns:sodipodi="http://sodipodi.sourceforge.net/DTD/sodipodi-0.dtd"
   xmlns:inkscape="http://www.inkscape.org/namespaces/inkscape"
   version="1.1"
   id="Layer_1"
   x="0px"
   y="0px"
   width="1772"
   height="1952"
   viewBox="0 0 1772 1952"
   enable-background="new 0 0 128 128"
   xml:space="preserve"
   inkscape:version="0.91 r13725"
   sodipodi:docname="qgis3.svg"
   inkscape:export-filename="D:\denv\qgis_pt_qgis_promotion\brochure\images_30\qgis3.png"
   inkscape:export-xdpi="278"
   inkscape:export-ydpi="278"><metadata
     id="metadata27"><rdf:RDF><cc:Work
         rdf:about=""><dc:format>image/svg+xml</dc:format><dc:type
           rdf:resource="http://purl.org/dc/dcmitype/StillImage" /><dc:title></dc:title></cc:Work></rdf:RDF></metadata><defs
     id="defs25" /><sodipodi:namedview
     pagecolor="#ffffff"
     bordercolor="#666666"
     borderopacity="1"
     objecttolerance="10"
     gridtolerance="10"
     guidetolerance="10"
     inkscape:pageopacity="0"
     inkscape:pageshadow="2"
     inkscape:window-width="1536"
     inkscape:window-height="801"
     id="namedview23"
     showgrid="false"
     inkscape:zoom="0.23046875"
     inkscape:cx="40.879882"
     inkscape:cy="713.35787"
     inkscape:window-x="-8"
     inkscape:window-y="-8"
     inkscape:window-maximized="1"
     inkscape:current-layer="Layer_1" /><polygon
     points="86.891,69.625 71.697,54.625 52.613,54.625 52.613,72.746 68.613,88.548 68.613,69.625 "
     id="polygon3"
     style="fill:#ee7913"
     transform="matrix(13.065032,0,0,13.065032,50.719825,134.50089)" /><linearGradient
     id="SVGID_1_"
     gradientUnits="userSpaceOnUse"
     x1="402.52441"
     y1="-220.87061"
     x2="400.64789"
     y2="-97.502296"
     gradientTransform="matrix(1,0,0,-1,-300.5195,-92.5547)"><stop
       offset="0"
       style="stop-color:#589632"
       id="stop6" /><stop
       offset="1"
       style="stop-color:#93B023"
       id="stop8" /></linearGradient><polygon
     points="94.488,77.625 76.613,77.625 76.613,96.033 107.143,126.625 126.613,126.625 126.613,109.057 "
     id="polygon10"
     style="fill:url(#SVGID_1_)"
     transform="matrix(13.065032,0,0,13.065032,50.719825,134.50089)" /><polygon
     points="94.488,77.625 86.891,69.625 68.613,69.625 68.613,88.548 76.613,96.033 76.613,77.625 "
     id="polygon12"
     style="fill:#f0e64a"
     transform="matrix(13.065032,0,0,13.065032,50.719825,134.50089)" /><linearGradient
     id="SVGID_2_"
     gradientUnits="userSpaceOnUse"
     x1="365.46191"
     y1="-221.14549"
     x2="363.59229"
     y2="-98.226997"
     gradientTransform="matrix(13.065032,0,0,-13.065032,-3875.577,-1074.7292)"><stop
       offset="0"
       style="stop-color:#589632"
       id="stop15" /><stop
       offset="1"
       style="stop-color:#93B023"
       id="stop17" /></linearGradient><path
     d="m 951.20104,1461.281 c -15.22077,3.1617 -23.11205,2.0513 -61.20969,2.0513 -272.61496,0 -504.46702,-224.1699 -504.46702,-514.84073 0,-290.67083 229.30438,-509.88899 504.46702,-509.88899 275.16255,0 494.28935,219.23123 494.28935,509.88899 0,47.2824 -5.8922,92.74863 -16.7754,135.85023 l 252.3249,252.2989 c 65.0509,-114.0055 101.45,-246.5241 101.45,-390.08273 0,-447.9869 -357.4984,-783.41854 -836.37115,-783.41854 -476.69076,-0.013 -834.189225,333.21058 -834.189225,783.40544 0,452.37673 357.498465,792.23753 834.176155,792.23753 123.03342,0 209.94202,-19.1926 301.04452,-49.1377 L 951.20104,1461.281 Z"
     id="path19"
     inkscape:connector-curvature="0"
     style="fill:url(#SVGID_2_)" /><polygon
     enable-background="new    "
     points="71.697,54.625 126.613,109.057 126.613,126.625 53.083,54.625 "
     id="polygon21"
     style="opacity:0.15;fill:#ffffff"
     transform="matrix(13.065032,0,0,13.065032,50.719825,134.50089)" /></svg>